<?xml version="1.0" encoding="UTF-8"?>
<svg id="Layer_1" data-name="Layer 1" xmlns="http://www.w3.org/2000/svg" viewBox="0 0 256 256">
  <defs>
    <style>
      .cls-1 {
        fill: #737373;
      }

      .cls-2 {
        fill: #545454;
      }

      .cls-3 {
        fill: #d9d9d9;
      }
    </style>
  </defs>
  <path class="cls-3" d="M249.14,139.36c0,19.36-22.6,35.12-50.75,35.55-8.17,10.01-22.64,16.64-39.14,16.64-10.91,0-20.95-2.91-28.85-7.78-7.11,3.44-15.53,5.44-24.56,5.44-24.99,0-45.33-15.25-46.18-34.29-16.46-5.24-27.99-17.37-27.99-31.5s12.56-27.32,30.17-32.16c.76-18.44,21.16-33.2,46.2-33.2,6.12,0,11.98,.88,17.33,2.51,8.35-7.47,19.6-12.04,32.01-12.04,17.91,0,33.46,9.55,41.22,23.54,25.04,2.15,44.36,16.01,44.36,32.81,0,4.68-1.5,9.14-4.22,13.17,6.53,5.91,10.39,13.31,10.39,21.32Z"/>
  <path class="cls-1" d="M202.17,153.23c0,16.8-20.3,30.47-45.58,30.84-7.34,8.68-20.33,14.44-35.15,14.44-9.79,0-18.81-2.53-25.91-6.75-6.39,2.99-13.95,4.72-22.06,4.72-22.44,0-40.71-13.23-41.47-29.75-14.79-4.55-25.14-15.07-25.14-27.34s11.28-23.71,27.1-27.9c.68-16,19-28.81,41.49-28.81,5.5,0,10.76,.77,15.56,2.17,7.5-6.48,17.61-10.44,28.75-10.44,16.09,0,30.05,8.28,37.02,20.43,22.49,1.87,39.84,13.89,39.84,28.47,0,4.06-1.35,7.93-3.79,11.42,5.86,5.13,9.33,11.55,9.33,18.5Z"/>
  <path class="cls-2" d="M243.06,165.68c0,15.51-18.11,28.13-40.65,28.47-6.54,8.01-18.14,13.33-31.35,13.33-8.74,0-16.78-2.33-23.11-6.23-5.7,2.76-12.44,4.35-19.68,4.35-20.02,0-36.31-12.21-36.99-27.47-13.19-4.2-22.42-13.91-22.42-25.23s10.06-21.88,24.17-25.76c.61-14.77,16.95-26.59,37.01-26.59,4.91,0,9.6,.71,13.88,2.01,6.69-5.98,15.7-9.64,25.64-9.64,14.35,0,26.8,7.65,33.02,18.86,20.06,1.72,35.54,12.82,35.54,26.28,0,3.75-1.2,7.32-3.38,10.55,5.23,4.74,8.33,10.66,8.33,17.08Z"/>
</svg>