<?xml version="1.0" encoding="UTF-8"?>
<svg id="Layer_1" data-name="Layer 1" xmlns="http://www.w3.org/2000/svg" viewBox="0 0 256 256">
  <defs>
    <style>
      .cls-1 {
        fill: #ffbd59;
      }

      .cls-2 {
        fill: #737373;
      }

      .cls-3 {
        fill: #545454;
      }

      .cls-4 {
        fill: #d9d9d9;
      }
    </style>
  </defs>
  <path class="cls-4" d="M216.62,166.56c0,16.52-19.29,29.97-43.31,30.34-6.97,8.54-19.32,14.2-33.4,14.2-9.31,0-17.88-2.49-24.62-6.64-6.07,2.94-13.25,4.64-20.96,4.64-21.32,0-38.69-13.01-39.41-29.27-14.05-4.47-23.88-14.82-23.88-26.89s10.72-23.32,25.75-27.44c.65-15.74,18.06-28.33,39.43-28.33,5.23,0,10.23,.75,14.79,2.14,7.12-6.37,16.73-10.27,27.32-10.27,15.29,0,28.55,8.15,35.18,20.09,21.37,1.84,37.86,13.66,37.86,28,0,3.99-1.28,7.8-3.6,11.24,5.57,5.05,8.87,11.36,8.87,18.2Z"/>
  <circle class="cls-1" cx="175.97" cy="103.55" r="70.19"/>
  <path class="cls-2" d="M176.53,178.39c0,14.34-17.33,26.01-38.9,26.32-6.26,7.41-17.35,12.32-30,12.32-8.36,0-16.05-2.16-22.11-5.76-5.45,2.55-11.9,4.03-18.83,4.03-19.15,0-34.75-11.29-35.4-25.39-12.62-3.88-21.45-12.86-21.45-23.33s9.63-20.23,23.13-23.81c.58-13.66,16.22-24.58,35.41-24.58,4.69,0,9.18,.65,13.28,1.86,6.4-5.53,15.03-8.91,24.53-8.91,13.73,0,25.64,7.07,31.6,17.43,19.19,1.59,34,11.85,34,24.3,0,3.46-1.15,6.77-3.23,9.75,5,4.38,7.97,9.85,7.97,15.79Z"/>
  <path class="cls-3" d="M211.43,189.02c0,13.23-15.45,24.01-34.7,24.3-5.59,6.84-15.48,11.38-26.76,11.38-7.46,0-14.32-1.99-19.72-5.32-4.86,2.35-10.62,3.72-16.79,3.72-17.08,0-30.99-10.42-31.57-23.44-11.26-3.58-19.13-11.87-19.13-21.53s8.59-18.67,20.63-21.98c.52-12.61,14.46-22.69,31.58-22.69,4.19,0,8.19,.6,11.85,1.71,5.71-5.1,13.4-8.23,21.88-8.23,12.24,0,22.87,6.53,28.18,16.09,17.12,1.47,30.33,10.94,30.33,22.43,0,3.2-1.03,6.25-2.88,9,4.46,4.04,7.11,9.1,7.11,14.57Z"/>
</svg>