<?xml version="1.0" encoding="UTF-8"?>
<svg id="Layer_1" data-name="Layer 1" xmlns="http://www.w3.org/2000/svg" viewBox="0 0 256 256">
  <defs>
    <style>
      .cls-1 {
        fill: #ffbd59;
      }

      .cls-2 {
        fill: #d9d9d9;
      }
    </style>
  </defs>
  <path class="cls-2" d="M216.62,166.56c0,16.52-19.29,29.97-43.31,30.34-6.97,8.54-19.32,14.2-33.4,14.2-9.31,0-17.88-2.49-24.62-6.64-6.07,2.94-13.25,4.64-20.96,4.64-21.32,0-38.69-13.01-39.41-29.27-14.05-4.47-23.88-14.82-23.88-26.89s10.72-23.32,25.75-27.44c.65-15.74,18.06-28.33,39.43-28.33,5.23,0,10.23,.75,14.79,2.14,7.12-6.37,16.73-10.27,27.32-10.27,15.29,0,28.55,8.15,35.18,20.09,21.37,1.84,37.86,13.66,37.86,28,0,3.99-1.28,7.8-3.6,11.24,5.57,5.05,8.87,11.36,8.87,18.2Z"/>
  <circle class="cls-1" cx="188.55" cy="90.97" r="57.6"/>
</svg>