<?xml version="1.0" encoding="UTF-8"?>
<svg id="Layer_1" data-name="Layer 1" xmlns="http://www.w3.org/2000/svg" viewBox="0 0 256 256">
  <defs>
    <style>
      .cls-1 {
        fill: #38b6ff;
      }

      .cls-2 {
        fill: #737373;
      }

      .cls-3 {
        fill: #545454;
      }

      .cls-4 {
        fill: #d9d9d9;
      }
    </style>
  </defs>
  <path class="cls-4" d="M247.6,109.6c0,19.11-22.32,34.67-50.1,35.09-8.07,9.88-22.35,16.43-38.64,16.43-10.77,0-20.68-2.87-28.48-7.68-7.02,3.4-15.33,5.37-24.25,5.37-24.67,0-44.75-15.05-45.59-33.85-16.25-5.17-27.63-17.14-27.63-31.1s12.4-26.97,29.79-31.75c.75-18.21,20.89-32.77,45.61-32.77,6.04,0,11.83,.87,17.11,2.47,8.24-7.37,19.35-11.88,31.6-11.88,17.68,0,33.03,9.43,40.69,23.24,24.72,2.13,43.8,15.8,43.8,32.39,0,4.62-1.48,9.03-4.16,13,6.45,5.84,10.26,13.14,10.26,21.05Z"/>
  <path class="cls-2" d="M201.22,123.29c0,16.58-20.04,30.09-45,30.45-7.24,8.57-20.07,14.26-34.7,14.26-9.67,0-18.57-2.49-25.58-6.67-6.31,2.95-13.77,4.66-21.78,4.66-22.15,0-40.19-13.06-40.94-29.37-14.6-4.49-24.81-14.88-24.81-26.99s11.14-23.4,26.75-27.55c.67-15.8,18.76-28.44,40.96-28.44,5.43,0,10.62,.76,15.36,2.15,7.4-6.4,17.38-10.31,28.38-10.31,15.88,0,29.66,8.18,36.55,20.17,22.2,1.84,39.33,13.71,39.33,28.1,0,4.01-1.33,7.83-3.74,11.28,5.79,5.06,9.22,11.4,9.22,18.26Z"/>
  <path class="cls-3" d="M241.59,135.58c0,15.31-17.88,27.77-40.13,28.11-6.46,7.91-17.9,13.16-30.95,13.16-8.62,0-16.56-2.3-22.82-6.15-5.62,2.72-12.28,4.3-19.43,4.3-19.76,0-35.85-12.06-36.52-27.11-13.02-4.14-22.13-13.73-22.13-24.91s9.94-21.6,23.86-25.43c.6-14.58,16.73-26.25,36.53-26.25,4.84,0,9.48,.7,13.7,1.98,6.6-5.9,15.5-9.52,25.31-9.52,14.16,0,26.46,7.55,32.6,18.62,19.8,1.7,35.08,12.66,35.08,25.94,0,3.7-1.19,7.23-3.34,10.41,5.16,4.67,8.22,10.52,8.22,16.86Z"/>
  <rect class="cls-1" x="63.84" y="193.63" width="35.66" height="6.87" transform="translate(-131.39 186.47) rotate(-64.64)"/>
  <rect class="cls-1" x="89.52" y="215.06" width="35.66" height="6.87" transform="translate(-136.07 221.93) rotate(-64.64)"/>
  <rect class="cls-1" x="142.76" y="193.63" width="35.66" height="6.87" transform="translate(-86.26 257.79) rotate(-64.64)"/>
  <rect class="cls-1" x="154.51" y="215.06" width="35.66" height="6.87" transform="translate(-98.91 280.65) rotate(-64.64)"/>
</svg>