<?xml version="1.0" encoding="UTF-8"?>
<svg id="Layer_1" data-name="Layer 1" xmlns="http://www.w3.org/2000/svg" viewBox="0 0 256 256">
  <defs>
    <style>
      .cls-1 {
        fill: #737373;
      }

      .cls-2 {
        fill: #ffde59;
      }

      .cls-3 {
        fill: #545454;
      }

      .cls-4 {
        fill: #d9d9d9;
      }
    </style>
  </defs>
  <path class="cls-4" d="M235.47,98.74c0,17.18-20.05,31.16-45.02,31.53-7.25,8.88-20.08,14.76-34.72,14.76-9.67,0-18.58-2.58-25.59-6.9-6.31,3.05-13.78,4.82-21.79,4.82-22.17,0-40.22-13.53-40.97-30.42-14.61-4.65-24.83-15.41-24.83-27.95s11.15-24.24,26.77-28.53c.67-16.36,18.77-29.45,40.98-29.45,5.43,0,10.63,.78,15.37,2.22,7.4-6.62,17.39-10.68,28.4-10.68,15.89,0,29.68,8.47,36.57,20.89,22.21,1.91,39.35,14.2,39.35,29.11,0,4.15-1.33,8.11-3.74,11.68,5.79,5.25,9.22,11.81,9.22,18.91Z"/>
  <polygon class="cls-2" points="113.5 151.21 99.87 190.26 120.21 190.26 97.02 237.85 157.83 168.9 131.6 168.49 140.55 151.21 113.5 151.21"/>
  <path class="cls-1" d="M193.8,111.04c0,14.9-18.01,27.03-40.43,27.36-6.51,7.7-18.04,12.81-31.18,12.81-8.69,0-16.69-2.24-22.99-5.99-5.67,2.65-12.37,4.18-19.57,4.18-19.91,0-36.12-11.74-36.79-26.4-13.12-4.03-22.3-13.37-22.3-24.25s10.01-21.03,24.04-24.75c.6-14.2,16.86-25.55,36.81-25.55,4.88,0,9.55,.68,13.81,1.93,6.65-5.75,15.62-9.26,25.5-9.26,14.27,0,26.66,7.35,32.84,18.12,19.95,1.66,35.34,12.32,35.34,25.25,0,3.6-1.2,7.04-3.36,10.13,5.2,4.55,8.28,10.24,8.28,16.41Z"/>
  <path class="cls-3" d="M230.07,122.08c0,13.76-16.06,24.95-36.06,25.26-5.81,7.11-16.09,11.83-27.81,11.83-7.75,0-14.88-2.07-20.5-5.53-5.05,2.45-11.04,3.86-17.46,3.86-17.76,0-32.21-10.83-32.82-24.36-11.7-3.72-19.89-12.34-19.89-22.38s8.93-19.41,21.44-22.85c.54-13.1,15.04-23.59,32.83-23.59,4.35,0,8.51,.63,12.31,1.78,5.93-5.3,13.93-8.55,22.75-8.55,12.73,0,23.78,6.78,29.29,16.73,17.79,1.53,31.53,11.37,31.53,23.31,0,3.32-1.07,6.5-3,9.35,4.64,4.2,7.39,9.46,7.39,15.15Z"/>
</svg>